Coordinates
version=1
nRows=18
nColumns=22
inDegrees=yes

Units are S.I. units (second, meters, Newtons, ...)
If the header above contains a line with 'inDegrees', this indicates whether rotational values are in degrees (yes) or radians (no).

endheader
time	pelvis_tilt	pelvis_list	pelvis_rotation	pelvis_tx	pelvis_ty	pelvis_tz	hip_flexion_r	hip_adduction_r	hip_rotation_r	knee_angle_r	ankle_angle_r	subtalar_angle_r	hip_flexion_l	hip_adduction_l	hip_rotation_l	knee_angle_l	ankle_angle_l	subtalar_angle_l	lumbar_extension	lumbar_bending	lumbar_rotation
      0.01000000	      2.84338081	     -1.47728620	      2.10486664	      0.66547651	      1.08315572	     -0.35783802	     -4.76784054	      1.19285870	     -4.62421870	     -9.11843082	     10.91961655	     -3.14033463	     -4.68256652	     -1.58090830	     -0.47135368	    -10.96750628	     13.73008178	     -0.73373651	     -3.41702555	     -1.14924394	     -5.61158002
      0.02000000	      2.83888495	     -1.47401130	      2.11203329	      0.66556699	      1.08313670	     -0.35783648	     -4.77005854	      1.19088117	     -4.62452142	     -9.11753859	     10.92032546	     -3.14142202	     -4.68481318	     -1.57920354	     -0.47316339	    -10.96288215	     13.73203367	     -0.73299468	     -3.41196709	     -1.14130170	     -5.60851131
      0.03000000	      2.82196221	     -1.46992366	      2.11024446	      0.66571364	      1.08309633	     -0.35778962	     -4.77153004	      1.18910684	     -4.64857061	     -9.09451155	     10.92830436	     -3.14717802	     -4.69033330	     -1.57752162	     -0.48063460	    -10.93329092	     13.73973056	     -0.72942679	     -3.38486112	     -1.13968481	     -5.60087980
      0.04000000	      2.80430414	     -1.45989894	      2.10666223	      0.66583293	      1.08304675	     -0.35772654	     -4.76637219	      1.18099040	     -4.67937016	     -9.08023217	     10.93530216	     -3.15519134	     -4.68806945	     -1.56988159	     -0.48686420	    -10.91548147	     13.74178423	     -0.72495375	     -3.36074630	     -1.14288882	     -5.58994814
      0.05000000	      2.73526349	     -1.43040539	      2.10380989	      0.66588722	      1.08291874	     -0.35764699	     -4.68598852	      1.14929471	     -4.73043195	     -9.09992133	     10.97159064	     -3.20560017	     -4.61443663	     -1.53984786	     -0.48364282	    -10.92222096	     13.73325602	     -0.70288560	     -3.28757529	     -1.17417846	     -5.58760572
      0.06000000	      2.71690329	     -1.42300974	      2.09017911	      0.66598808	      1.08286004	     -0.35753686	     -4.67877981	      1.14476960	     -4.76624543	     -9.08303521	     10.97273217	     -3.21085850	     -4.60843152	     -1.53643913	     -0.50268049	    -10.90987850	     13.74113735	     -0.70356998	     -3.26598420	     -1.17706664	     -5.57344132
      0.07000000	      2.66268174	     -1.39863671	      2.06846020	      0.66603962	      1.08274643	     -0.35742759	     -4.60799932	      1.11707589	     -4.81145997	     -9.11064576	     10.99380768	     -3.23936267	     -4.54967922	     -1.51170417	     -0.52944009	    -10.92196753	     13.74386964	     -0.70230729	     -3.20775247	     -1.19915064	     -5.55824443
      0.08000000	      2.64334484	     -1.39431249	      2.05880635	      0.66615092	      1.08268968	     -0.35731982	     -4.60283982	      1.11782454	     -4.82922512	     -9.09008151	     11.00584942	     -3.24530139	     -4.54159812	     -1.51144805	     -0.53830096	    -10.91237585	     13.74793006	     -0.70263729	     -3.18041314	     -1.19890855	     -5.55548078
      0.09000000	      2.62222277	     -1.38574793	      2.04916411	      0.66626489	      1.08263414	     -0.35724618	     -4.58708931	      1.11056578	     -4.84855232	     -9.08774665	     11.01716693	     -3.25475293	     -4.53084083	     -1.50451263	     -0.55197112	    -10.90398776	     13.75314611	     -0.70312755	     -3.15013782	     -1.19792368	     -5.55874362
      0.10000000	      2.61920538	     -1.38137750	      2.04501709	      0.66636600	      1.08260962	     -0.35718011	     -4.58819748	      1.10942098	     -4.84983396	     -9.09051766	     11.01864335	     -3.25598851	     -4.53293887	     -1.50265233	     -0.55150400	    -10.90747591	     13.75319651	     -0.70306652	     -3.14237311	     -1.19323964	     -5.56100586
      0.11000000	      2.56923187	     -1.36714418	      2.04641986	      0.66646578	      1.08251765	     -0.35713459	     -4.53049400	      1.09518033	     -4.86315573	     -9.11156528	     11.06330157	     -3.29223552	     -4.48396273	     -1.48809817	     -0.54836577	    -10.90928858	     13.75642602	     -0.70129530	     -3.07888916	     -1.20146030	     -5.57825351
      0.12000000	      2.56791411	     -1.36356531	      2.04847034	      0.66658238	      1.08250378	     -0.35709441	     -4.53398329	      1.09447711	     -4.86192395	     -9.11584270	     11.06221314	     -3.29272414	     -4.48899431	     -1.48666377	     -0.54992307	    -10.91007262	     13.75707130	     -0.70131996	     -3.07017442	     -1.19565083	     -5.58142652
      0.13000000	      2.56124158	     -1.36151031	      2.04792173	      0.66671831	      1.08248405	     -0.35705104	     -4.53420933	      1.09514125	     -4.85752898	     -9.11671078	     11.06524583	     -3.29551335	     -4.49894476	     -1.48667837	     -0.55786893	    -10.89144868	     13.76236769	     -0.70126480	     -3.05285897	     -1.18691770	     -5.60788605
      0.14000000	      2.56021370	     -1.35845633	      2.05144516	      0.66683848	      1.08247218	     -0.35700617	     -4.53844178	      1.09541934	     -4.85509476	     -9.12076601	     11.06636316	     -3.29617672	     -4.50408157	     -1.48669133	     -0.55803734	    -10.89246072	     13.76281478	     -0.70113416	     -3.04354946	     -1.18321455	     -5.61126524
      0.15000000	      2.55316191	     -1.35744835	      2.05268790	      0.66697484	      1.08245224	     -0.35695294	     -4.54049599	      1.09840740	     -4.84504333	     -9.11852249	     11.07841723	     -3.29985049	     -4.51333197	     -1.48848015	     -0.56037435	    -10.87390191	     13.76807543	     -0.70014162	     -3.02608871	     -1.17592214	     -5.64225340
      0.16000000	      2.55199438	     -1.35481250	      2.05400071	      0.66709325	      1.08243897	     -0.35689012	     -4.54465315	      1.09969197	     -4.84264644	     -9.12182733	     11.08010289	     -3.30058268	     -4.51802473	     -1.48947257	     -0.55956229	    -10.87592916	     13.76848965	     -0.69987981	     -3.01756872	     -1.17419287	     -5.64617408
      0.17000000	      2.54462124	     -1.35426231	      2.05270972	      0.66722059	      1.08241845	     -0.35681615	     -4.54641929	      1.10388325	     -4.83017226	     -9.11795551	     11.09399699	     -3.30471756	     -4.52468942	     -1.49256678	     -0.56116373	    -10.86142855	     13.77374491	     -0.69828978	     -3.00248627	     -1.16819356	     -5.67740009
      0.18000000	      2.54299332	     -1.35206756	      2.05049992	      0.66733841	      1.08240436	     -0.35672964	     -4.55007478	      1.10626462	     -4.82831649	     -9.12044929	     11.09562588	     -3.30544934	     -4.52881218	     -1.49497418	     -0.56020926	    -10.86435592	     13.77405709	     -0.69800581	     -2.99518888	     -1.16879437	     -5.68180782
